<?xml version="1.0" encoding="iso-8859-1"?>
<!-- Generator: Adobe Illustrator 19.0.0, SVG Export Plug-In . SVG Version: 6.00 Build 0)  -->
<svg version="1.1" id="Layer_1" xmlns="http://www.w3.org/2000/svg" xmlns:xlink="http://www.w3.org/1999/xlink" x="0px" y="0px"
	 viewBox="0 0 512 512" style="enable-background:new 0 0 512 512;" xml:space="preserve">
<g>
	<g>
		<g>
			<path d="M76.804,119.467h-8.533v-8.533c0-4.71-3.823-8.533-8.533-8.533c-4.719,0-8.533,3.823-8.533,8.533v8.533h-8.533
				c-4.719,0-8.533,3.823-8.533,8.533s3.814,8.533,8.533,8.533h8.533v8.533c0,4.71,3.814,8.533,8.533,8.533
				c4.71,0,8.533-3.823,8.533-8.533v-8.533h8.533c4.71,0,8.533-3.823,8.533-8.533S81.515,119.467,76.804,119.467z"/>
			<path d="M299.516,153.643c-4.736-0.461-8.866,2.961-9.344,7.637c-0.077,0.862-8.576,86.357-8.576,137.387
				c0,51.319,8.303,101.683,8.653,103.808c0.691,4.164,4.309,7.125,8.414,7.125c0.461,0,0.93-0.034,1.408-0.12
				c4.642-0.768,7.791-5.171,7.014-9.822c-0.085-0.503-8.414-51.072-8.414-100.992c0-50.185,8.405-134.835,8.491-135.68
				C307.622,158.293,304.209,154.112,299.516,153.643z"/>
			<path d="M211.93,409.481c0.478,0.085,0.947,0.12,1.408,0.12c4.105,0,7.723-2.961,8.414-7.125
				c0.35-2.125,8.653-52.489,8.653-103.808c0-51.029-8.499-136.525-8.576-137.387c-0.469-4.676-4.574-8.09-9.344-7.637
				c-4.693,0.469-8.107,4.651-7.646,9.344c0.085,0.845,8.499,85.487,8.499,135.68c0,49.86-8.337,100.489-8.422,100.992
				C204.139,404.309,207.287,408.713,211.93,409.481z"/>
			<path d="M198.609,289.801c4.531-1.289,7.159-6.016,5.862-10.547c-0.162-0.58-16.742-58.88-16.742-82.987V128
				c0-7.518,10.837-22.554,51.849-25.626c3.345-0.247,6.238-2.449,7.381-5.606c1.143-3.157,0.324-6.69-2.091-9.028
				c-8.021-7.765-14.464-31.01-14.464-45.073c0-22.272,16.034-25.6,25.591-25.6c9.566,0,25.6,3.328,25.6,25.6
				c0,14.063-6.443,37.308-14.464,45.073c-2.415,2.338-3.234,5.871-2.091,9.028s4.036,5.359,7.381,5.606
				c41.011,3.072,51.84,18.108,51.84,25.626v68.267c0,24.107-16.572,82.406-16.734,82.987c-1.297,4.531,1.331,9.259,5.862,10.547
				c0.785,0.23,1.57,0.333,2.347,0.333c3.712,0,7.125-2.441,8.201-6.187c0.708-2.492,17.391-61.193,17.391-87.68V128
				c0-16.307-14.31-34.688-53.316-40.986c6.997-13.995,10.658-32.606,10.658-44.348C298.671,16.742,281.92,0,255.996,0
				c-25.916,0-42.658,16.742-42.658,42.667c0,11.742,3.652,30.353,10.65,44.348c-39.006,6.298-53.325,24.678-53.325,40.986v68.267
				c0,26.487,16.691,85.188,17.399,87.68C189.359,288.478,194.095,291.072,198.609,289.801z"/>
			<path d="M119.471,324.267c0-4.71-3.823-8.533-8.533-8.533c-4.719,0-8.533,3.823-8.533,8.533c-4.719,0-8.533,3.823-8.533,8.533
				c0,4.71,3.814,8.533,8.533,8.533c0,4.71,3.814,8.533,8.533,8.533c4.71,0,8.533-3.823,8.533-8.533c4.71,0,8.533-3.823,8.533-8.533
				C128.004,328.09,124.181,324.267,119.471,324.267z"/>
			<path d="M281.067,460.8h-49.596c-4.719,0-8.533,3.823-8.533,8.533s3.814,8.533,8.533,8.533h49.596
				c4.719,0,8.533-3.823,8.533-8.533S285.786,460.8,281.067,460.8z"/>
			<path d="M469.329,68.267h-25.6v-25.6c0-4.71-3.814-8.533-8.533-8.533c-4.71,0-8.533,3.823-8.533,8.533v25.6h-25.591
				c-4.719,0-8.533,3.823-8.533,8.533s3.814,8.533,8.533,8.533h25.591v25.6c0,4.71,3.823,8.533,8.533,8.533
				c4.719,0,8.533-3.823,8.533-8.533v-25.6h25.6c4.719,0,8.533-3.823,8.533-8.533S474.048,68.267,469.329,68.267z"/>
			<path d="M341.073,433.126c-0.947-3.797-4.361-6.46-8.277-6.46h-153.6c-3.908,0-7.322,2.662-8.269,6.46l-17.067,68.267
				c-0.64,2.552-0.068,5.257,1.544,7.322c1.621,2.074,4.105,3.285,6.724,3.285h187.742c2.62,0,5.103-1.212,6.724-3.285
				c1.613-2.065,2.185-4.77,1.545-7.322L341.073,433.126z M173.069,494.933l12.8-51.2h140.262l12.8,51.2H173.069z"/>
		</g>
	</g>
</g>
<g>
</g>
<g>
</g>
<g>
</g>
<g>
</g>
<g>
</g>
<g>
</g>
<g>
</g>
<g>
</g>
<g>
</g>
<g>
</g>
<g>
</g>
<g>
</g>
<g>
</g>
<g>
</g>
<g>
</g>
</svg>
